<svg xmlns="http://www.w3.org/2000/svg" viewBox="0 0 220.19 59.34"><defs><style>.cls-1{fill:#41b25d;}.cls-2{fill:#fdd000;}</style></defs><g id="レイヤー_2" data-name="レイヤー 2"><g id="レイヤー_1-2" data-name="レイヤー 1"><polygon class="cls-1" points="20.31 16.93 20.31 30.45 24.02 30.45 40.63 30.45 40.63 16.93 24.02 16.93 20.31 16.93"/><path class="cls-1" d="M51,14v-.67L50.35,13,31,3.1l-.55-.29-.55.29L10.59,13l-.61.32V14a47.09,47.09,0,0,0,1.75,13.34C14.65,37.56,20.79,44.9,30,49.13l.5.25.51-.25c9.17-4.23,15.31-11.57,18.25-21.81A47.71,47.71,0,0,0,51,14ZM31.16,37H22.1c0-1,1.11-1.23,1.11-1.23H37.74s1.1.27,1.1,1.23Zm-3.78-1.72V33.43h6.19v1.85ZM42.75,15.74v17.1H18.19V14.54H42.75Z"/><path class="cls-1" d="M72.77,47.38a41.65,41.65,0,0,0,2.3-10.81h5.47a57,57,0,0,1-2.3,10.81ZM74,14.82H81.4v-3.2h6.11v3.2h6.88v5.43H74Zm1.19,7.05H93.4v9c0,2.35-1.19,3.38-4.14,3.46H87.51v11c0,3.25-1.37,4.7-4.53,4.87H79.35V44.09h2.39V34.3H75.2ZM87.38,29v-2.7h-6.5V29ZM94,36.4a27.53,27.53,0,0,0,.81,5.34c3.16-3.93,3.89-6.88,4.4-17.43H95.54V18.67h3.84V11.62h6.33v7.05h7.77v5.64h-7.9l-.26,2.9H110v17h1.07a2.9,2.9,0,0,0,2.39-1.58V48.7a3.91,3.91,0,0,1-3,1.28H106.9c-2.26-.13-2.9-.85-2.94-3.29V36c-1.63,7-5.3,12-10.73,14.44v-3.5h-3c-1.07-5.77-1.24-7-1.33-10.51Zm17.69-24.31a28.88,28.88,0,0,1,1.79,5.51h-5.64a27.58,27.58,0,0,0-1.41-5.51Z"/><path class="cls-1" d="M118.43,26h12l-2.56-5.17h7.86L137.57,25l5.22-5.77H121.68V12.34h31.53v5.51L145.52,26h10.25v9.49c0,4.65-2.22,6.45-8,6.53H143V35.46h5.43V32.17h-8V44.69c.05,4.1-1.75,5.85-6.19,6.06h-8V44.17h6.92v-12h-14.7Z"/><path class="cls-1" d="M160.68,25.54c3.33-3.67,5.43-7.94,6.79-13.71h6.84l-.3,1.71h4.23V11.83h6.54v1.71h4.57V11.83h6.49v1.71h4.49v5.55h-4.49v1.37h4.45l0,5.3H179.48V27.3h20.16V44.6c.09,4.1-1.19,5.47-5.25,5.81h-3.5V48.15h-6.24V42.51h-2.82v8.11h-5.77v-6c-1.66,3.33-3,4.74-5.08,5.34v-8.5c1.41-1.54,2-3.59,2-7V20.46h5.25V19.09h-6A17.25,17.25,0,0,1,170.42,23V50.45h-6.66V32a15.37,15.37,0,0,1-3.08,2.4Zm24,7.87V32h-2.82v1.37Zm0,4.82V36.91h-2.82v1.32Zm4.7-17.77V19.09h-4.57v1.37Zm4,12.95V32h-2.65v1.37Zm0,4.82V36.91h-2.65v1.32Zm0,4.28h-2.65V44h2.65Z"/><path class="cls-1" d="M220.19,42.8a7.22,7.22,0,1,1-7.09-7.21A7.24,7.24,0,0,1,220.19,42.8Zm-10.51,0a3.27,3.27,0,1,0,3.2-3.24A3.26,3.26,0,0,0,209.68,42.76Z"/><path class="cls-1" d="M30.47,0,7.14,11.73S4.05,41.36,30.47,52.1C56.89,41.36,53.8,11.73,53.8,11.73ZM50.75,27.62c-3.21,11-10,18.76-20.28,23.09C20.22,46.38,13.4,38.62,10.2,27.62A46.94,46.94,0,0,1,8.41,12.54L30.47,1.44l22.07,11.1A47.25,47.25,0,0,1,50.75,27.62Z"/><path class="cls-2" d="M24.31,54.83c-.23-2.47-2.76-5.42-4.54-7A6.4,6.4,0,0,0,22.29,54a14.47,14.47,0,0,0-7.37.65C18,56.49,22.3,56.89,24.31,54.83Z"/><path class="cls-2" d="M19.58,52.67c.2-2.3-1.69-5.67-3-7.41a6,6,0,0,0,1.37,6.38,13.58,13.58,0,0,0-7.21-.78C13.34,53.22,17.38,54.24,19.58,52.67Z"/><path class="cls-2" d="M15,49.25c.33-2.18-1.3-5.63-2.46-7.27a5.64,5.64,0,0,0,1,6.28,13,13,0,0,0-7-1.27C9.1,49.55,12.92,50.58,15,49.25Z"/><path class="cls-2" d="M10.76,45.32c.73-1.91,0-5.49-.9-7.34a5.57,5.57,0,0,0-.14,6.23A11.28,11.28,0,0,0,3.37,41.6C5.33,44.64,8.75,46.07,10.76,45.32Z"/><path class="cls-2" d="M7.54,41.32c1.08-1.69.77-5.34.44-6.88a4.75,4.75,0,0,0-1.55,5,12.28,12.28,0,0,0-4.92-3.21C2.64,39.73,5.68,41.62,7.54,41.32Z"/><path class="cls-2" d="M5.18,36.26c1.08-1,2.23-4,2.2-6.36a5,5,0,0,0-2.55,5.28,9.89,9.89,0,0,0-4.2-4.91C.92,33.58,3.31,36.13,5.18,36.26Z"/><path class="cls-2" d="M4.19,31.19c1.08-.83,2.38-3.61,2.29-6.13A5.19,5.19,0,0,0,4,30.24,8.06,8.06,0,0,0,.05,25.48C.32,28.53,2.54,31,4.19,31.19Z"/><path class="cls-2" d="M3.51,26.28c1.08-.65,2.6-3.18,2.59-5.72a5.23,5.23,0,0,0-2.71,4.9A7.25,7.25,0,0,0,0,20.66C.08,23.65,2.16,26,3.51,26.28Z"/><path class="cls-2" d="M3,21.53a6.87,6.87,0,0,0,2.83-5.26,5.1,5.1,0,0,0-2.87,4.54A6.65,6.65,0,0,0,0,16C-.1,18.89,1.81,21.15,3,21.53Z"/><path class="cls-2" d="M24.53,50.7c-.06.94.68,4.56,3.63,5.87a14.3,14.3,0,0,0-7.26,2.08C24.66,60,29,59.4,30.52,57,29.67,54.44,26.81,52.13,24.53,50.7Z"/><path class="cls-2" d="M2.91,17.32c1.52-1.41,1.07-4.11.1-6C1.65,13.11,1.26,16,2.91,17.32Z"/><path class="cls-2" d="M36.63,54.83c.23-2.47,2.76-5.42,4.55-7A6.43,6.43,0,0,1,38.65,54a14.53,14.53,0,0,1,7.38.65C42.94,56.49,38.65,56.89,36.63,54.83Z"/><path class="cls-2" d="M41.36,52.67c-.2-2.3,1.69-5.67,3-7.41A6,6,0,0,1,43,51.64a13.58,13.58,0,0,1,7.21-.78C47.6,53.22,43.56,54.24,41.36,52.67Z"/><path class="cls-2" d="M45.94,49.25c-.33-2.18,1.3-5.63,2.46-7.27a5.64,5.64,0,0,1-1,6.28,13.06,13.06,0,0,1,7-1.27C51.85,49.55,48,50.58,45.94,49.25Z"/><path class="cls-2" d="M50.19,45.32c-.74-1.91,0-5.49.9-7.34a5.58,5.58,0,0,1,.13,6.23,11.3,11.3,0,0,1,6.35-2.61C55.61,44.64,52.19,46.07,50.19,45.32Z"/><path class="cls-2" d="M53.41,41.32c-1.09-1.69-.77-5.34-.45-6.88a4.75,4.75,0,0,1,1.55,5,12.28,12.28,0,0,1,4.92-3.21C58.3,39.73,55.26,41.62,53.41,41.32Z"/><path class="cls-2" d="M55.77,36.26c-1.09-1-2.24-4-2.21-6.36a5,5,0,0,1,2.55,5.28,9.86,9.86,0,0,1,4.21-4.91C60,33.58,57.63,36.13,55.77,36.26Z"/><path class="cls-2" d="M56.75,31.19c-1.07-.83-2.37-3.61-2.29-6.13A5.19,5.19,0,0,1,57,30.24a8.1,8.1,0,0,1,3.91-4.76C60.62,28.53,58.4,31,56.75,31.19Z"/><path class="cls-2" d="M57.43,26.28c-1.07-.65-2.59-3.18-2.59-5.72a5.23,5.23,0,0,1,2.71,4.9,7.25,7.25,0,0,1,3.39-4.8C60.86,23.65,58.78,26,57.43,26.28Z"/><path class="cls-2" d="M58,21.53a6.87,6.87,0,0,1-2.83-5.26A5.1,5.1,0,0,1,58,20.81,6.72,6.72,0,0,1,60.92,16C61,18.89,59.14,21.15,58,21.53Z"/><path class="cls-2" d="M36.41,50.7c.06.94-.68,4.56-3.63,5.87a14.38,14.38,0,0,1,7.27,2.08c-3.77,1.3-8.14.75-9.62-1.64C31.27,54.44,34.14,52.13,36.41,50.7Z"/><path class="cls-2" d="M58,17.32c-1.53-1.41-1.08-4.11-.11-6C59.29,13.11,59.68,16,58,17.32Z"/><path class="cls-2" d="M48.67,13.34a1.66,1.66,0,0,0-.9-1c-1.42-.72-5.05-.6-11,1.76l1.75,0C41,13.45,43,13.36,44,13.9a1.35,1.35,0,0,1,.72.77c.22.66-.08,1.6-.89,2.73a14.9,14.9,0,0,1-1.56,1.81,43.42,43.42,0,0,1-10,7c-4.37,2.31-11.85,5.27-14.55,3.92A2.17,2.17,0,0,1,16.69,29a3.13,3.13,0,0,1,.55-2.73l.05-.08a.19.19,0,0,0-.07-.26A.21.21,0,0,0,17,26l-.1.1a17.64,17.64,0,0,0-2.13,2.69,3.31,3.31,0,0,0-.66,2.67,1.54,1.54,0,0,0,.73.83c2.15,1.2,10.55-.63,19.17-5.21a51.79,51.79,0,0,0,11.82-8.3,16.78,16.78,0,0,0,1.84-2.14c.15-.21.29-.41.4-.6A3.33,3.33,0,0,0,48.67,13.34Z"/><path class="cls-2" d="M24,23.29a1.3,1.3,0,1,1-2.59,0,1.3,1.3,0,1,1,2.59,0Z"/><path class="cls-2" d="M27.55,20.62A1.68,1.68,0,1,1,25.87,19,1.68,1.68,0,0,1,27.55,20.62Z"/></g></g></svg>