<svg xmlns="http://www.w3.org/2000/svg" xmlns:xlink="http://www.w3.org/1999/xlink" width="186" height="186" viewBox="0 0 186 186">
  <defs>
    <clipPath id="clip-path">
      <circle id="楕円形_1078" data-name="楕円形 1078" cx="93" cy="93" r="93" transform="translate(0.5)" fill="#fff"/>
    </clipPath>
  </defs>
  <g id="マスクグループ_12983" data-name="マスクグループ 12983" transform="translate(-0.5)" clip-path="url(#clip-path)">
    <rect id="長方形_2873" data-name="長方形 2873" width="226" height="226" transform="translate(-28.5 -19)" fill="#99abb9"/>
    <path id="パス_31823" data-name="パス 31823" d="M113.65,103.875,91.6,98.361,89.72,90.854a39.689,39.689,0,0,0,11.139-22.1,8.651,8.651,0,0,0,6.24-7.242L108.538,50a8.618,8.618,0,0,0-5.509-9.13l.53-10.84,2.153-2.159c3.241-3.448,5.929-9.36.311-17.937C101.705,3.345,94.372,0,84.217,0,80.211,0,70.989,0,62.4,5.768c-24.523.512-27.861,11.9-27.861,23.014,0,2.585.627,8.4,1.042,11.916a8.645,8.645,0,0,0-5.964,9.308L31.056,61.52a8.662,8.662,0,0,0,6.925,7.409A39.939,39.939,0,0,0,48.567,90.354l-2,8.019-22.053,5.515A32.285,32.285,0,0,0,0,135.277a2.879,2.879,0,0,0,2.878,2.878s33.283,28.5,66.383,28.5,66.016-28.5,66.016-28.5a2.889,2.889,0,0,0,2.878-2.89A32.307,32.307,0,0,0,113.65,103.875Z" transform="translate(24.435 26.593)" fill="#e2eef7"/>
  </g>
</svg>
