<svg xmlns="http://www.w3.org/2000/svg" xmlns:xlink="http://www.w3.org/1999/xlink" width="186" height="186" viewBox="0 0 186 186">
  <defs>
    <clipPath id="clip-path">
      <circle id="楕円形_1079" data-name="楕円形 1079" cx="93" cy="93" r="93" fill="#fff"/>
    </clipPath>
  </defs>
  <g id="グループ_13203" data-name="グループ 13203" transform="translate(-910 -1901)">
    <g id="マスクグループ_12984" data-name="マスクグループ 12984" transform="translate(910 1901)" clip-path="url(#clip-path)">
      <rect id="長方形_2874" data-name="長方形 2874" width="226" height="226" transform="translate(-29 -18)" fill="#d9b9b1"/>
      <path id="パス_31824" data-name="パス 31824" d="M114.86,104.982,92.572,99.408l-1.286-5.149c15.376-2.589,23.288-7.2,23.637-7.4a2.915,2.915,0,0,0,1.408-2.316,2.956,2.956,0,0,0-1.111-2.49c-.1-.081-10.5-8.668-10.5-38.42,0-25.092-5.87-37.816-17.453-37.816H85.55C81.373,1.78,78.237,0,69.813,0,58.882,0,34.907,10.99,34.907,43.633c0,29.752-10.4,38.339-10.472,38.4a2.9,2.9,0,0,0,.244,4.817c.349.209,8.186,4.84,23.655,7.423l-1.286,5.137L24.76,104.982A32.655,32.655,0,0,0,0,136.717a2.91,2.91,0,0,0,2.909,2.909s33.452,31.8,66.9,31.8,66.9-31.8,66.9-31.8a2.92,2.92,0,0,0,2.909-2.92A32.651,32.651,0,0,0,114.86,104.982Z" transform="translate(23.334 26.8)" fill="#fff7f5"/>
    </g>
  </g>
</svg>
