<svg width="73" height="73" viewBox="0 0 73 73" fill="none" xmlns="http://www.w3.org/2000/svg">
<mask id="mask0_188_20" style="mask-type:alpha" maskUnits="userSpaceOnUse" x="0" y="0" width="73" height="73">
<path d="M36.06 72.12C55.9754 72.12 72.12 55.9754 72.12 36.06C72.12 16.1446 55.9754 0 36.06 0C16.1446 0 0 16.1446 0 36.06C0 55.9754 16.1446 72.12 36.06 72.12Z" fill="#C4C4C4"/>
</mask>
<g mask="url(#mask0_188_20)">
<path d="M61.5001 61.5C75.5834 47.4168 75.5834 24.5832 61.5001 10.5C47.4168 -3.58332 24.5833 -3.58332 10.5 10.5C-3.58324 24.5832 -3.58324 47.4168 10.5 61.5C24.5833 75.5833 47.4168 75.5833 61.5001 61.5Z" fill="url(#paint0_linear_188_20)"/>
<path d="M25.8137 27.1922C25.1527 27.1922 24.5122 27.0984 23.892 26.9107C23.28 26.723 22.7945 26.4741 22.4355 26.1641L22.9863 24.9278C23.3371 25.2053 23.7655 25.4337 24.2715 25.6133C24.7855 25.7846 25.2996 25.8703 25.8137 25.8703C26.4502 25.8703 26.9235 25.7683 27.2336 25.5643C27.5518 25.3603 27.7109 25.091 27.7109 24.7565C27.7109 24.5117 27.6212 24.3117 27.4416 24.1567C27.2703 23.9935 27.05 23.867 26.7807 23.7773C26.5114 23.6875 26.1442 23.5855 25.6791 23.4713C25.0263 23.3162 24.4959 23.1612 24.0879 23.0061C23.688 22.8511 23.3412 22.6104 23.0475 22.284C22.7619 21.9494 22.6191 21.5006 22.6191 20.9376C22.6191 20.4643 22.7455 20.0359 22.9985 19.6524C23.2596 19.2607 23.6472 18.9506 24.1613 18.7221C24.6835 18.4936 25.32 18.3794 26.0707 18.3794C26.593 18.3794 27.1071 18.4447 27.613 18.5752C28.1189 18.7058 28.5555 18.8935 28.9227 19.1383L28.4208 20.3745C28.0455 20.1542 27.6538 19.9869 27.2458 19.8727C26.8378 19.7585 26.442 19.7013 26.0585 19.7013C25.4302 19.7013 24.961 19.8074 24.6509 20.0196C24.349 20.2317 24.198 20.5133 24.198 20.8641C24.198 21.1089 24.2837 21.3089 24.4551 21.4639C24.6346 21.6189 24.859 21.7413 25.1283 21.8311C25.3975 21.9209 25.7647 22.0229 26.2299 22.1371C26.8664 22.284 27.3886 22.439 27.7966 22.6022C28.2046 22.7573 28.5514 22.998 28.837 23.3244C29.1308 23.6508 29.2776 24.0914 29.2776 24.6463C29.2776 25.1196 29.1471 25.548 28.886 25.9315C28.633 26.315 28.2454 26.621 27.7232 26.8495C27.2009 27.078 26.5644 27.1922 25.8137 27.1922ZM34.6376 26.7149C34.4581 26.8617 34.2378 26.9719 33.9767 27.0453C33.7237 27.1188 33.4544 27.1555 33.1688 27.1555C32.4507 27.1555 31.8959 26.9678 31.5042 26.5925C31.1125 26.2171 30.9167 25.6704 30.9167 24.9523V21.8066H29.8395V20.5826H30.9167V19.0893H32.4467V20.5826H34.197V21.8066H32.4467V24.9156C32.4467 25.2338 32.5242 25.4786 32.6792 25.65C32.8343 25.8132 33.0587 25.8948 33.3524 25.8948C33.6951 25.8948 33.9807 25.805 34.2092 25.6255L34.6376 26.7149ZM41.8256 23.8385C41.8256 23.9445 41.8174 24.0955 41.8011 24.2913H36.6725C36.7623 24.7728 36.9948 25.1563 37.3702 25.4419C37.7537 25.7193 38.227 25.8581 38.79 25.8581C39.5081 25.8581 40.0997 25.6214 40.5648 25.1481L41.3849 26.0906C41.0912 26.4415 40.7199 26.7067 40.2711 26.8862C39.8223 27.0657 39.3164 27.1555 38.7533 27.1555C38.0352 27.1555 37.4028 27.0127 36.8561 26.7271C36.3094 26.4415 35.8851 26.0457 35.5832 25.5398C35.2894 25.0257 35.1425 24.4464 35.1425 23.8017C35.1425 23.1653 35.2853 22.5941 35.5709 22.0881C35.8647 21.5741 36.2686 21.1742 36.7827 20.8886C37.2968 20.603 37.8761 20.4602 38.5208 20.4602C39.1572 20.4602 39.7244 20.603 40.2221 20.8886C40.728 21.1661 41.1197 21.5618 41.3972 22.0759C41.6828 22.5818 41.8256 23.1693 41.8256 23.8385ZM38.5208 21.6842C38.0312 21.6842 37.615 21.8311 37.2723 22.1249C36.9377 22.4105 36.7337 22.794 36.6603 23.2754H40.369C40.3037 22.8021 40.1038 22.4186 39.7692 22.1249C39.4347 21.8311 39.0185 21.6842 38.5208 21.6842ZM46.9183 20.4602C47.5548 20.4602 48.1219 20.5989 48.6196 20.8764C49.1256 21.1538 49.5213 21.5455 49.8069 22.0514C50.0925 22.5573 50.2353 23.1408 50.2353 23.8017C50.2353 24.4627 50.0925 25.0502 49.8069 25.5643C49.5213 26.0702 49.1256 26.4619 48.6196 26.7393C48.1219 27.0168 47.5548 27.1555 46.9183 27.1555C46.037 27.1555 45.3393 26.8617 44.8252 26.2742V29.4444H43.2952V20.5337H44.7518V21.3905C45.0048 21.0804 45.3148 20.8478 45.682 20.6928C46.0574 20.5377 46.4695 20.4602 46.9183 20.4602ZM46.7469 25.8458C47.31 25.8458 47.771 25.6581 48.13 25.2828C48.4972 24.9074 48.6808 24.4137 48.6808 23.8017C48.6808 23.1897 48.4972 22.6961 48.13 22.3207C47.771 21.9453 47.31 21.7577 46.7469 21.7577C46.3797 21.7577 46.0492 21.8433 45.7555 22.0147C45.4617 22.1779 45.2292 22.4145 45.0578 22.7246C44.8864 23.0347 44.8008 23.3937 44.8008 23.8017C44.8008 24.2097 44.8864 24.5688 45.0578 24.8789C45.2292 25.1889 45.4617 25.4297 45.7555 25.601C46.0492 25.7642 46.3797 25.8458 46.7469 25.8458Z" fill="white"/>
<path d="M37.6905 41.3583C39.6693 41.6031 41.1789 42.2763 42.2193 43.3779C43.2597 44.4795 43.7799 45.8565 43.7799 47.5089C43.7799 48.7533 43.4637 49.8855 42.8313 50.9055C42.1989 51.9255 41.2401 52.7415 39.9549 53.3535C38.6901 53.9451 37.1397 54.2409 35.3037 54.2409C33.7737 54.2409 32.2947 54.0267 30.8667 53.5983C29.4591 53.1495 28.2555 52.5375 27.2559 51.7623L28.9695 48.6717C29.7447 49.3245 30.6831 49.8447 31.7847 50.2323C32.9067 50.5995 34.0593 50.7831 35.2425 50.7831C36.6501 50.7831 37.7517 50.4975 38.5473 49.9263C39.3633 49.3347 39.7713 48.5391 39.7713 47.5395C39.7713 46.5399 39.3837 45.7647 38.6085 45.2139C37.8537 44.6427 36.6909 44.3571 35.1201 44.3571H33.1617V41.6337L38.0271 35.8503H28.2963V32.5149H42.8925V35.1771L37.6905 41.3583Z" fill="white"/>
</g>
<defs>
<linearGradient id="paint0_linear_188_20" x1="36.0001" y1="87" x2="87.0002" y2="36" gradientUnits="userSpaceOnUse">
<stop stop-color="#EB8100"/>
<stop offset="1" stop-color="#EF9700"/>
</linearGradient>
</defs>
</svg>
