<svg xmlns="http://www.w3.org/2000/svg" viewBox="0 0 221.01 63.33"><defs><style>.cls-1,.cls-2{fill:#fff;}.cls-2{font-size:9.5px;font-family:Jun34Pro-Medium, Jun34Pro Medium-83pv-RKSJ-H;font-weight:500;letter-spacing:0.11em;}.cls-3{letter-spacing:0.61em;}.cls-4{letter-spacing:0.61em;}</style></defs><g id="white"><path class="cls-1" d="M107.74,28.3a15.27,15.27,0,1,0,15.39,15.26A15.34,15.34,0,0,0,107.74,28.3Zm0,23.63a8.37,8.37,0,1,1,8.43-8.37A8.4,8.4,0,0,1,107.74,51.93Z"></path><path class="cls-1" d="M142.13,28.3a15.35,15.35,0,0,0-8.42,2.5V21.25a.83.83,0,0,0-.83-.83h-5.3a.83.83,0,0,0-.83.83V44.88a.86.86,0,0,0,.1.38,15.38,15.38,0,1,0,15.28-17Zm0,23.63a8.37,8.37,0,1,1,8.43-8.37A8.4,8.4,0,0,1,142.13,51.93Z"></path><path class="cls-1" d="M77.32,58.83A11.38,11.38,0,0,1,65.91,47.5a.83.83,0,0,1,.83-.82H72a.83.83,0,0,1,.83.82,4.46,4.46,0,0,0,8.92,0V21.25a.83.83,0,0,1,.83-.83H87.9a.84.84,0,0,1,.84.83V47.5A11.38,11.38,0,0,1,77.32,58.83Z"></path><path class="cls-1" d="M164.62,58.83a.83.83,0,0,1-.83-.82V40.45H162a.83.83,0,0,1-.83-.82V34.37a.83.83,0,0,1,.83-.82h1.82v-1.8A11.38,11.38,0,0,1,175.2,20.42a.84.84,0,0,1,.84.83V26.5a.83.83,0,0,1-.84.82,4.45,4.45,0,0,0-4.46,4.43v1.8h1.82a.83.83,0,0,1,.83.82v5.26a.83.83,0,0,1-.83.82h-1.82V58a.83.83,0,0,1-.83.82Z"></path><path class="cls-1" d="M204.3,58.83a.83.83,0,0,1-.83-.82V21.25a.83.83,0,0,1,.83-.83h5.29a.84.84,0,0,1,.84.83V58a.83.83,0,0,1-.84.82Z"></path><path class="cls-1" d="M214.88,58.83a.83.83,0,0,1-.83-.82V21.25a.83.83,0,0,1,.83-.83h5.29a.84.84,0,0,1,.84.83V58a.83.83,0,0,1-.84.82Z"></path><path class="cls-1" d="M199,33.55h-5.29a.83.83,0,0,0-.83.82V47.5a4.46,4.46,0,0,1-8.92,0V34.37a.83.83,0,0,0-.83-.82h-5.29a.83.83,0,0,0-.84.82V47.5a11.42,11.42,0,0,0,22.83,0V34.37A.83.83,0,0,0,199,33.55Z"></path><path class="cls-1" d="M107.74,58.83a15.35,15.35,0,0,0,15.39-15.27c0-.41,0-.82-.06-1.23-2.33.2-4.64.44-6.92.7,0,.18,0,.35,0,.53a8.44,8.44,0,0,1-16.6,2.06q-3.46.68-6.79,1.47A15.37,15.37,0,0,0,107.74,58.83Z"></path><path class="cls-1" d="M126.85,45.26a15.38,15.38,0,1,0,30.56-3.49q-3.53-.2-7.11-.27a8.25,8.25,0,0,1,.26,2.06,8.43,8.43,0,0,1-16.85,0,8.14,8.14,0,0,1,.23-1.92q-3.63.15-7.19.4v2.84A.86.86,0,0,0,126.85,45.26Z"></path><path class="cls-1" d="M77.32,58.83a11.38,11.38,0,0,0,11.4-10.74q-4.14,1.08-8,2.31a4.48,4.48,0,0,1-3.36,1.53,4.73,4.73,0,0,1-.93-.1q-4,1.41-7.77,3A11.43,11.43,0,0,0,77.32,58.83Z"></path><path class="cls-1" d="M164.62,58.83h5.29a.83.83,0,0,0,.83-.82V42.84q-3.44-.37-7-.65V58A.83.83,0,0,0,164.62,58.83Z"></path><path class="cls-1" d="M204.3,58.83h5.29a.83.83,0,0,0,.84-.82V51.23c-2.25-.76-4.58-1.48-7-2.16V58A.83.83,0,0,0,204.3,58.83Z"></path><path class="cls-1" d="M214.88,58.83h5.29A.83.83,0,0,0,221,58V55.28q-3.34-1.45-7-2.78V58A.83.83,0,0,0,214.88,58.83Z"></path><path class="cls-1" d="M188.43,58.83a11.39,11.39,0,0,0,11.4-10.75c-2.26-.59-4.58-1.14-6.94-1.66V47.5a4.46,4.46,0,0,1-8.92,0V44.69q-3.42-.59-7-1.08V47.5A11.38,11.38,0,0,0,188.43,58.83Z"></path><path class="cls-1" d="M44.9,7.79A26,26,0,0,0,26.34,0h0A26.1,26.1,0,0,0,7.7,7.79a26.79,26.79,0,0,0-.44,37.13.61.61,0,0,0,.89,0l6.5-6.57a.42.42,0,0,0,0-.58,16.56,16.56,0,0,1-3.35-17.25c0-.13.1-.26.16-.38A16.24,16.24,0,0,1,26.3,10.34h0A15.89,15.89,0,0,1,37.67,15.1a16.36,16.36,0,0,1,.14,22.83.21.21,0,0,0,0,.29l6.95,7a.21.21,0,0,0,.29,0A26.77,26.77,0,0,0,44.9,7.79Z"></path><path class="cls-1" d="M29,51.3a.24.24,0,0,0-.17-.09h-5a.22.22,0,0,0-.17.09L21.23,58a.2.2,0,0,0,0,.26l4.95,5a.2.2,0,0,0,.14.06.2.2,0,0,0,.15-.06l4.18-4.22.7-.71a.2.2,0,0,0,0-.27Z"></path><path class="cls-1" d="M29.78,42.76,29,42a.18.18,0,0,0-.14-.06H23.76a.2.2,0,0,0-.15.06l-.78.79-1.68,1.7a.21.21,0,0,0,0,.24l2.51,5.07a.19.19,0,0,0,.18.11h5a.19.19,0,0,0,.18-.11L31.5,44.7a.21.21,0,0,0,0-.24Z"></path><text class="cls-2" transform="translate(67.15 12.55)">“仕事<tspan class="cls-3" x="25.68" y="0">”と</tspan><tspan x="50.32" y="0">“働きたい</tspan><tspan class="cls-4" x="97.09" y="0">”</tspan><tspan x="106.44" y="0">をつなぐ</tspan></text></g></svg>